Disc 1:-
General

Format : Matroska
Format version : Version 1
File size : 199 MiB
Duration : 1h 8mn
Overall bit rate : 405 Kbps
Encoded date : UTC 2012-01-03 07:21:51
Writing application : AVSMatroskaFile
Writing library : libebml v0.7.7 + libmatroska v0.8.1

Video

ID : 1
Format : AVC
Format/Info : Advanced Video Codec
Format profile : Main@L5.1
Format settings, CABAC : Yes
Format settings, ReFrames : 1 frame
Codec ID : V_MPEG4/ISO/AVC
Duration : 1h 8mn
Bit rate : 301 Kbps
Width : 440 pixels
Height : 360 pixels
Display aspect ratio : 1.222
Frame rate : 23.000 fps
Color space : YUV
Chroma subsampling : 4:2:0
Bit depth : 8 bits
Scan type : Progressive
Bits/(Pixel*Frame) : 0.083
Stream size : 148 MiB (74%)
Default : Yes
Forced : No

Audio

ID : 2
Format : MPEG Audio
Format version : Version 1
Format profile : Layer 3
Codec ID : A_MPEG/L3
Codec ID/Hint : MP3
Duration : 1h 8mn
Bit rate mode : Constant
Bit rate : 96.0 Kbps
Channel(s) : 2 channels
Sampling rate : 44.1 KHz
Compression mode : Lossy
Stream size : 47.2 MiB (24%)
Writing library : LAMELAME_MAJOR_VERSI
Default : Yes
Forced : No
D!sc 2:-
General

Complete name : BIRUGAALI - CD - 02.mp4.mkv
Format : Matroska
Format version : Version 1
File size : 187 MiB
Duration : 1h 5mn
Overall bit rate : 402 Kbps
Encoded date : UTC 2012-01-03 07:04:12
Writing application : AVSMatroskaFile
Writing library : libebml v0.7.7 + libmatroska v0.8.1

Video

ID : 1
Format : AVC
Format/Info : Advanced Video Codec
Format profile : Main@L5.1
Format settings, CABAC : Yes
Format settings, ReFrames : 1 frame
Codec ID : V_MPEG4/ISO/AVC
Duration : 1h 5mn
Bit rate : 298 Kbps
Width : 440 pixels
Height : 360 pixels
Display aspect ratio : 1.222
Frame rate : 23.000 fps
Color space : YUV
Chroma subsampling : 4:2:0
Bit depth : 8 bits
Scan type : Progressive
Bits/(Pixel*Frame) : 0.082
Stream size : 139 MiB (74%)
Default : Yes
Forced : No

Audio

ID : 2
Format : MPEG Audio
Format version : Version 1
Format profile : Layer 3
Codec ID : A_MPEG/L3
Codec ID/Hint : MP3
Duration : 1h 5mn
Bit rate mode : Constant
Bit rate : 96.0 Kbps
Channel(s) : 2 channels
Sampling rate : 44.1 KHz
Compression mode : Lossy
Stream size : 44.8 MiB (24%)
Writing library : LAMELAME_MAJOR_VERSI
Default : Yes
Forced : No

==================================================================

Screens
 
http://SavantTools.com/anon/http://img163.imageshack.us/img163/6442/vlcsnap2012010313h05m13.png 
http://SavantTools.com/anon/http://img546.imageshack.us/img546/3396/vlcsnap2012010313h07m43.png 
http://SavantTools.com/anon/http://img708.imageshack.us/img708/7046/vlcsnap2012010313h14m42.png